<?xml version='1.0' encoding='UTF-8'?>
<svg xmlns="http://www.w3.org/2000/svg" viewBox="0 0 60 60" version="1.1" id="tensor"><rect fill="#68B143" width="60" height="60" />
		<g opacity="0.8">
			<path fill="#FFFFFF" d="M54.92,5.08v49.84H5.08V5.08H54.92 M60,0H0v60h60V0L60,0z" />
			<path fill="#FFFFFF" d="M30.003,12.35c-9.954,0-18.052,8.098-18.052,18.052c0,9.954,8.098,18.053,18.052,18.053 s18.053-8.099,18.053-18.053C48.056,20.448,39.957,12.35,30.003,12.35z M17.031,30.401c0-3.962,1.79-7.509,4.599-9.891l8.356,9.725 l-8.436,9.985C18.789,37.84,17.031,34.325,17.031,30.401z M38.443,40.232l-8.438-9.988l8.367-9.737 c2.811,2.381,4.603,5.931,4.603,9.895C42.976,34.331,41.213,37.852,38.443,40.232z" />
		</g>
	</svg>