<?xml version='1.0' encoding='UTF-8'?>
<svg xmlns="http://www.w3.org/2000/svg" viewBox="0 0 60 60" version="1.1" id="toast"><rect fill="#3E69AC" width="60" height="60" />
		<g opacity="0.8">
			<path fill="#FFFFFF" d="M54.92,5.08v49.84H5.08V5.08H54.92 M60,0H0v60h60V0L60,0z" />
			<path fill="#FFFFFF" d="M20.197,24.726c5.578,0,8.505-1.748,11.089-3.291c2.328-1.391,4.352-2.581,8.57-2.579 c3.981,0.011,5.991,1.085,8.147,2.381v-5.722c-2.015-0.941-4.515-1.679-8.134-1.689c-0.024,0-0.05,0-0.075,0 c-5.578,0-8.505,1.748-11.088,3.291c-2.317,1.385-4.318,2.58-8.508,2.58c-0.021,0-0.042,0-0.062,0 c-4.041-0.012-6.051-1.118-8.242-2.439v5.734c2.029,0.962,4.552,1.725,8.228,1.734C20.146,24.726,20.172,24.726,20.197,24.726z" />
			<path fill="#FFFFFF" d="M48.004,36.962c-2.014-0.939-4.514-1.677-8.129-1.687c-0.025,0-0.05,0-0.075,0 c-5.578,0-8.506,1.748-11.089,3.291c-2.316,1.384-4.318,2.58-8.509,2.58c-0.021,0-0.042,0-0.062,0 c-4.043-0.012-6.053-1.118-8.246-2.441v5.734c2.03,0.964,4.553,1.727,8.231,1.736c5.626,0.004,8.569-1.741,11.164-3.291 c2.316-1.384,4.318-2.58,8.509-2.58c0.021,0,0.041,0,0.062,0c3.979,0.012,5.988,1.084,8.144,2.379V36.962z" />
			<path fill="#FFFFFF" d="M20.199,35.451c5.578,0,8.505-1.748,11.089-3.291c2.329-1.391,4.35-2.574,8.571-2.58 c3.979,0.011,5.988,1.084,8.145,2.379v-5.721c-2.014-0.94-4.515-1.678-8.131-1.688c-0.025,0-0.051,0-0.075,0 c-5.578,0-8.505,1.748-11.089,3.291c-2.316,1.384-4.318,2.58-8.508,2.58c-0.021,0-0.043,0-0.062,0 c-4.041-0.012-6.051-1.119-8.244-2.441v5.735c2.029,0.962,4.553,1.725,8.229,1.735C20.149,35.451,20.174,35.451,20.199,35.451z" />
		</g>
	</svg>